<?xml version="1.0" encoding="UTF-8"?>
<svg width="24px" height="24px" viewBox="0 0 24 24" version="1.1" xmlns="http://www.w3.org/2000/svg" xmlns:xlink="http://www.w3.org/1999/xlink">
    <!-- Generator: sketchtool 45 (43475) - http://www.bohemiancoding.com/sketch -->
    <title>D43EB52A-921D-4219-975A-6A612435C7A2</title>
    <desc>Created with sketchtool.</desc>
    <defs></defs>
    <g id="Symbols" stroke="none" stroke-width="1" fill="none" fill-rule="evenodd">
        <g id="0-Atom/Icon/Instagram" fill="#8A8173">
            <path d="M9.375,12.5 C9.375,10.4166563 10.4166563,9.375 12.5,9.375 C14.5833437,9.375 15.625,10.4166563 15.625,12.5 C15.625,14.5833438 14.5833437,15.625 12.5,15.625 C10.4166563,15.625 9.375,14.5833438 9.375,12.5 Z M9.4140625,9.4140625 C8.86718477,9.96094023 8.50260508,10.5729133 8.3203125,11.25 L5,11.25 L5,6.875 C5,6.32812227 5.18228984,5.88541836 5.546875,5.546875 C5.96354375,5.18228984 6.41926836,5 6.9140625,5 L18.1640625,5 C18.6588566,5 19.0885398,5.18228984 19.453125,5.546875 C19.8177102,5.91146016 20,6.35416406 20,6.875 L20,11.25 L16.71875,11.25 C16.5364574,10.5729133 16.1718777,9.96094023 15.625,9.4140625 C14.7656207,8.5546832 13.7239645,8.125 12.5,8.125 C11.3020773,8.125 10.2734418,8.5546832 9.4140625,9.4140625 Z M18.75,8.28125 L18.75,6.7578125 C18.75,6.62760352 18.6979172,6.51041719 18.59375,6.40625 C18.4895828,6.30208281 18.3723965,6.25 18.2421875,6.25 L16.7578125,6.25 C16.6276035,6.25 16.5104172,6.30208281 16.40625,6.40625 C16.3020828,6.51041719 16.25,6.62760352 16.25,6.7578125 L16.25,8.28125 C16.25,8.41145898 16.3020828,8.52864531 16.40625,8.6328125 C16.4843754,8.71093789 16.6015617,8.75 16.7578125,8.75 L18.2421875,8.75 C18.3984383,8.75 18.5156246,8.71093789 18.59375,8.6328125 C18.6979172,8.52864531 18.75,8.41145898 18.75,8.28125 Z M15.625,15.5859375 C16.4583375,14.7526 16.875,13.7239645 16.875,12.5 L20,12.5 L20,18.125 C20,18.5937523 19.8177102,19.0364563 19.453125,19.453125 C19.1145816,19.8177102 18.6848984,20 18.1640625,20 L6.9140625,20 C6.39322656,20 5.95052266,19.8177102 5.5859375,19.453125 C5.19531055,19.062498 5,18.6197941 5,18.125 L5,12.5 L8.1640625,12.5 C8.1640625,13.7239645 8.580725,14.7526 9.4140625,15.5859375 C10.2734418,16.4453168 11.3020773,16.875 12.5,16.875 C13.7239645,16.875 14.7656207,16.4453168 15.625,15.5859375 Z"></path>
        </g>
    </g>
</svg>