<svg xmlns="http://www.w3.org/2000/svg" xmlns:xlink="http://www.w3.org/1999/xlink" width="103" height="537" viewBox="0 0 103 537">
    <defs>
        <path id="a" d="M0 .324v287.85h292.01V.324z"/>
        <path id="c" d="M.333.166h193.538v179.827H.333V.166z"/>
    </defs>
    <g fill="none" fill-rule="evenodd" opacity=".75">
        <path fill="#DED5C3" d="M3.34 481.531c.792-.271 2.697-4.005 0 0M1.534 449.39c1.144-1.073-.929-1.247 0 0M62.987 392.25c.27.04-.033-2.288 0 0M7.792 444.171c1.685-1.646-1.07-.583 0 0M2.222 115.276c-.11-.603-.206-1.213-.404-1.796-2.357 6.063.778 5.537.404 1.796"/>
        <path fill="#DED5C3" d="M-46.662 484.137c.275.19.405.314.487.416 2.168 2.27-3.402 4.916-3.55 4.754-1.49-1.679 1.996-4.155 3.063-5.17m6.215-9.424c-.038 2.25 4.28 2.53 1.574 5.048-2.166 2.013-2.94 1.955-5.513.5 1.31-1.85 2.625-3.699 3.94-5.548m7.61-7.497c.472 1.328 2.267 4.425 1.76 5.802-.389 1.047-2.204 1.678-3.1 2.225l-3.676-3.135 5.016-4.892m6.768-5.403c.698 1.254 1.393 2.509 2.09 3.763 1.017 1.834.585 1.483-.847 2.63-1.355 1.084-1.315 1.836-2.687.404-.972-1.018-1.946-2.032-2.916-3.047l4.36-3.75m17.82-10.852c1.481-.816 3.353-3.61 4.755-1.607 1.484 2.114.72 3.028-1.414 4.069-1.17-1.139-5.235-2.856-5.028.528.104 1.649.74 2.065-.605 3.513-1.094 1.177-2.285 2.263-3.424 3.396.523-2.368-.353-5.897-3.505-3.901-2.556 1.62.37 3.777 1.542 4.94-1.748 1.084-3.015 2.93-4.408 1.055-.84-1.125-1.676-2.252-2.512-3.375 4.701-3.237 9.61-5.876 14.598-8.618m11.437-7.624l1.508 3.092c-1.055.986-2.108 1.976-3.163 2.962-.816-1.097-1.633-2.19-2.45-3.287 1.368-.921 2.735-1.845 4.105-2.767m9.58-4.033a5737.634 5737.634 0 0 1-4.976 4.866c-1.047-.569-2.095-1.14-3.14-1.712 1.221-.517 7.168-3.833 8.117-3.154m13.968-10.519c1.127-5.18 4.754-11.598 3.7-16.955-.563-2.864.394-5.763.565-8.615.19-3.148.393-6.293.586-9.44.891-14.486 1.062-28.968 1.306-43.475.103-6.129 1.238-12.464 2.102-18.541.377-2.646 1.501-18.83 3.611-19.117 1.586 2.203 4.688 7.832 1.668 10.037-2.017 1.472-.372 3.693 1.364 4.084 1.273.286 1.516.244 2.722.012.361 1.005.704 2.02 1.033 3.04 1.69 5.51 3.641 10.946 4.947 16.57 1.117 4.804 1.136 10.415 1.336 15.343.45 10.985-1.974 22.222-4.241 32.914-2.067 9.734-4.167 20.496-8.508 29.517l-.766-3.487c-.705.126-1.407-.258-2.008-.555-1.173-.583-2.366-1.011-3.247.296-1.153 1.714-.57 3.836.534 5.403 1.096 1.557 2.46 1.212 4.154 1.528-2.12 6-4.824 11.788-8.218 17.175-.839-3.27-3.995-3.85-5.875-.83-1.814 2.91 2.001 4.61 4.132 4.706a9288.964 9288.964 0 0 0-3.504 5.63c-.864-.424-2.486-1.46-3.534-.982-3.184 1.45-1.09 4.788 1.15 5.487-1.535 2.135-2.99 4.333-4.621 6.4-1.45 1.835-2.053 1.33-4.207 1.45 5.6-12.037 10.986-24.577 13.819-37.595m-6.645-55.546c.74 1.906 3.612 1.515 2.559 3.547a1005.83 1005.83 0 0 0-1.633 3.14c-.962-1.851-4.392-5.943-6.609-2.971-2.423 3.247 2.037 5.741 4.834 5.625-9.431 11.117-18.957 21.98-29.855 31.725-5.559 4.965-11.362 9.74-16.534 15.12-4.557 4.743-8.596 10.122-12.539 15.378-.674-4.753 1.934-8.576 2.785-13.063 1.558.425 4.466 2.019 5.065.354.779-2.175-.973-3.179-2.699-4.171-.746-3.425 2.814-4.686 3.636-7.37 1.266-4.136 4.792-7.215 7.33-10.578 2.772-3.67 5.355-7.496 8.304-11.027 3.27-3.921 7.132-6.98 10.937-10.34 3.345-2.955 6.51-6.225 10.22-8.728 7.514-5.067 12.996-12.215 20.14-17.6.066.406.091.7.097.93.226 2.183.013 4.368-.751 6.444-1.48-.433-2.493-1.407-3.819-.21-.997.902-2.027 2.358-1.468 3.795m28.126-56.968c-1.23-4.126-2.467-8.248-3.632-12.392-1.125-3.993-1.48-7.925-2.987-11.833-6.205-16.1-11.786-31.994-15.491-48.882-.467-2.135-.919-4.274-1.37-6.413-.235-1.11-1.47-4.197-1.15-5.228.991-3.203.028-6.383-1.001-9.435-2.44-7.229-1.308-15.17-1.162-22.699 3.623 1.082 7.906.768 7.078-4.267-.495-3-4.404-3.314-6.767-3.25l.448-3.822c2.54.418 4.012-1.356 5.258 1.841 1.402 3.6 2.69 7.242 4.048 10.86 3.127 8.315 7.14 16.196 10.966 24.203 7.413 15.511 15.116 31.31 21.04 47.453 5.954 16.216 9.101 34.481 9.522 51.733.215 8.799-.46 17.613-1.169 26.38-.53 6.592-.407 15.148-3.089 21.27-2.304-1.047-4.287-2.783-5.532.524-1.112 2.955 2.409 3.72 4.59 3.817l-.701 3.56c.134 1.27-.414 1.574-1.646.911-2.843-.418-2.847-.33-3.287-3.169-.632-4.1-1.086-8.221-1.672-12.328-1.118-7.824-3.57-15.386-5.39-23.065a475.542 475.542 0 0 0-6.904-25.77M5.246 277.36c-3.376 5.587-7.413 10.78-12.162 15.271-5.012 4.738-9.431 10.062-14.442 14.81-10.49 9.937-21.603 19.211-32.531 28.663-10.243 8.86-19.742 18.397-29.377 27.905.93-4.256 1.18-8.658 3.473-12.492.488 1.38 1.33 3.077 3.089 2.513 1.176-.372 2.574-1.318 2.436-2.72-.339-3.382-2.746-3.102-5.32-2.408 2.665-6.306 5.047-12.827 8.251-18.887 3.116-5.903 7.275-11.462 11.274-16.795 8.347-11.133 17.648-21.498 27.196-31.603 9.379-9.927 18.912-19.705 28.334-29.59 4.39-4.604 8.622-9.317 12.174-14.61 3.091-4.607 7.396-10.6 8.574-16.046l2.236 18.053c-1.286-1.39-2.186-3.214-4.364-2.947-1.635.204-2.598 1.548-1.968 3.145 1.49 3.758 3.394 2.99 6.514 2.499-1.87 12.343-6.953 24.584-13.387 35.239m57.741 114.892l-.075-5.498c-.03-2.038 1.248-1.803 3.01-2.402-.426 1.604-1.376 8.13-2.935 7.9m-51.248 79.4c.038 1.872-2.98 4.44-4.11 5.809-1.32 1.605-2.3 3.39-4.29 4.07 1.702-2.524 3.4-5.048 5.099-7.573.613-.91 3.232-5.774 3.301-2.307M-2.13 134.737c-2.954 8.097-7.224 16.037-11.58 23.461-8.948 15.258-21.525 28.197-35.507 38.944-14.197 10.917-28.698 21.699-42.313 33.355-6.69 5.725-12.99 12.774-18.365 19.729-2.595 3.354-5.51 6.242-7.9 9.776-1.816 2.695-3.548 5.437-5.528 8.013-.496-3.847 2.036-8.408 3.288-12.058 1.338-3.907 2.711-7.804 4.2-11.659 3.007-7.766 6.235-15.099 10.805-22.09 4.624-7.073 10.003-13.056 15.96-19 6.021-6.007 11.624-12.108 18.177-17.595 7.003-5.864 14.73-10.831 22.121-16.185 7.062-5.114 13.469-10.852 19.93-16.69 12.122-10.951 24.642-23.783 30.66-39.259a7.99 7.99 0 0 1 .404 1.797c1.155 6.357-2.27 13.749-4.352 19.46m17.292-3.764c4.128.35 7.254.115 4.326-4.697-1.819-2.984-3.823-.604-5.158 1.371l-.913-3.882a9.177 9.177 0 0 0 2.086-1.086c1.05-.747 2.177-2.039 1.698-3.435-.963-2.8-2.652-3.716-5.523-2.94-.027-1.504-.944-2.862-.773-4.388.147-1.316 1.225-2.013 1.105-3.403-.137-1.58-.942-2.27-1.714-3.547-.895-1.49-.898-3.298-.944-4.978 4.308 5.014 7.183 11.499 10.543 17.19 3.738 6.327 8.01 11.817 12.964 17.239 9.682 10.593 18.983 21.583 28.345 32.462 4.754 5.522 9.61 11.027 13.973 16.872 4.138 5.539 6.924 11.473 9.998 17.607 3.173 6.323 5.362 13.222 7.354 20.008.707 2.405 5.441 17.265 3.805 18.278-2.646-2.065-6.541-.76-5.357 3.184 1.075 3.58 4.174 1.198 6.34.567.04 2.044.078 4.087.116 6.128-2.298-.093-5.536 1.436-3.657 4.226 1.424 2.107 4.048.708 4.171 3.358.1 2.086-2.031 2.004-2.621 3.707-.505 1.457 1.106 5.018 2.733 4.141-.075 2.176-.152 4.355-.226 6.533-5.36-12.372-10.882-23.314-19.713-33.646-9.483-11.093-19.656-21.582-29.142-32.654-9.205-10.746-16.095-23.932-22.528-36.47-3.09-6.024-5.81-11.954-7.228-18.605-1.36-6.379-2.723-12.756-4.06-19.14m-79.412 385.91c1.216-.217 2.077-1.71 2.837-2.549a485.281 485.281 0 0 0 5.849-6.598c3.946-4.525 7.727-9.2 11.773-13.639 4.395-4.823 10.355-8.492 15.46-12.524 5.045-3.981 10.063-7.99 15.11-11.963 10.204-8.04 20.056-15.715 29.2-24.977 3.299-3.341-.564 4.397-1.081 5.435-1.356 2.714-2.696 5.437-4.105 8.123-2.839 5.414-6.062 10.617-9.433 15.713-3.372 5.093-7.75 9.37-11.094 14.393-2.829 4.251-7.221 7.558-10.736 11.309-4.268 4.556-8.765 9.248-13.616 13.191-3.138 2.554-10.483 5.245-11.473 9.513 4.661-.161 9.412-3.287 13.534-5.36 4.13-2.077 8.295-4.171 12.309-6.466 7.797-4.46 14.291-11.719 20.855-17.778 7.152-6.597 13.664-14.158 19.806-21.692 5.436-6.667 10.513-13.744 13.865-21.708 3.523-8.355 7.916-16.15 11.058-24.729 3.246-8.853 5.543-17.675 7.275-26.932.883-4.724 1.764-9.447 2.666-14.167.601-3.154 1.077-4.076 1.292-.323.104 1.84.019 3.607-.143 5.442-.77 8.685-.761 17.241-3.028 25.725-1.684 6.3-3.108 12.677-4.937 18.938-.8 2.736-4.568 10.828.172 12.048 3.217.826 6.853-11.9 7.73-13.928 2.263-5.236 4.83-10.375 6.353-15.893 3.42-12.4 7.222-24.785 10.333-37.261 1.532-6.15 3.02-12.38 3.95-18.652.881-5.934.7-11.88.969-17.857.587-13.011-.768-25.772-1.882-38.722-1.096-12.738-3.254-25.682-7.211-37.866-4.043-12.462-10.394-23.479-16.88-34.786a338.382 338.382 0 0 1-17.014-34.002 21.684 21.684 0 0 1-.433-.97c1.137-.703 7.76 8.808 8.95 10.3 2.897 3.636 5.794 7.272 8.704 10.902 6.276 7.83 12.536 15.686 19.082 23.291 6.345 7.373 13.266 15.171 17.79 23.838 4.473 8.567 4.826 17.655 7.384 26.727.907 3.207-1.988 10.302.748 12.505 4.083 3.292 3.417-5.53 3.625-6.81 1.516-9.327.895-18.518 1.261-27.89.733-18.809.061-38.628-5.233-56.77-3.549-12.152-9.082-24.73-15.887-35.403-6.848-10.744-14.36-21.805-23.243-30.976-4.548-4.692-8.539-9.854-13.122-14.503-4.276-4.34-8.854-8.387-12.924-12.926-4.318-4.81-8.333-9.792-11.968-15.144-1.685-2.481-3.32-5-4.957-7.516-1.441-2.217-3.939-4.507-3.975-7.324-.348-25.759-1.455-51.705-8.455-76.648C1.09 4.715-.869-1.524-1.806-8.023-2.33-11.656-.797-19.825-4.861-21.71c-3.639-1.69-12.453.094-8.096 5.615.701.889 1.702 1.335 2.198 2.406.453.984-.075 2.258.098 3.325.418 2.548 2.269 4.427 2.842 6.923 2.974 12.945 5.505 25.976 7.76 39.064 2.192 12.724 2.528 25.474 4.042 38.249.306 2.58.478 5.235-1.15 7.45-.885 1.205.421 6.112.467 7.628.073 2.627-1.185 5.046-1.524 7.663-.356 2.731-1.454 5.105-2.484 7.627-1.135 2.778-1.51 5.733-2.952 8.4-1.176 2.173-2.672 4.144-3.986 6.23-2.879 4.562-6.196 8.543-9.633 12.711-7.623 9.246-17.1 17.215-26.038 25.16-9.445 8.402-20.029 15.845-29.964 23.667-10.363 8.16-19.97 17.023-28.877 26.737-4.257 4.64-7.228 9.683-10.64 14.918-3.009 4.619-5.938 9.334-8.017 14.457-4.414 10.881-7.241 22.639-8.587 34.271-.7 6.077-.993 11.834-3.072 17.636-.789 2.21-4.88 12.105-2.133 13.343 1.54.694 7.139-14.356 7.776-16.023 2.002-5.247 4.18-10.48 7.41-15.112 3.725-5.347 6.576-10.804 11.053-15.644 4.315-4.665 8.948-9.05 13.672-13.3 19.668-17.688 41.25-33.083 61.257-50.4 9.4-8.14 16.761-18.04 24.071-27.98 3.739-5.088 5.973-11.039 8.236-16.875 1.837-4.74 2.878-10.68 5.716-14.882 2.002 7.782 3.132 15.652 5.527 23.407 2.326 7.539 7.641 13.54 7.52 21.756-.067 4.353-.888 8.677-1 13.045-.102 3.963-.251 7.917-.636 11.863-.652 6.628-2.476 14.448-5.817 20.215-16.795 29.009-45.05 49.083-65.843 74.933-2.242 2.786-4.448 5.597-6.658 8.408-1.424 1.807-2.126 4.254-4.002 5.69-3.979 3.044-6.074 8.115-8.541 12.334-6.356 10.862-10.182 22.753-14.135 34.605-2.064 6.184-2.197 12.74-2.768 19.18-.237 2.643-1.447 4.686-1.877 7.238-.393 2.344-.135 4.722-.13 7.083.015 4.58 4.373-.793 4.797-2.119a44.648 44.648 0 0 1 3.108-7.396c2.708-5.086 6.551-9.215 10.362-13.483 8.407-9.413 16.966-18.874 26.447-27.214 9.809-8.625 20.639-16.57 29.92-25.72 4.599-4.53 9.89-9.095 13.848-14.167 3.711-4.757 7.34-9.576 10.818-14.506 3.632-5.15 7.098-10.37 9.765-16.095 2.28-4.89 4.123-9.961 6.645-14.732 1.274 3.174 1.64 6.774 2.434 10.096.993 4.162 2.268 8.246 3.559 12.322 2.088 6.605 5.167 13.35 6.584 20.11 1.533 7.314-2.212 13.824-4.338 20.633-2.195 7.027-3.034 14.313-5.137 21.325-2.07 6.904-2.846 13.087-7.007 19.192-1.89 2.773-4.292 5.753-6.79 8.007-1.243 1.122-2.921 1.432-4.127 2.482-.797.696-1.298 1.66-2.008 2.431-2.458 2.668-5.46 4.6-7.996 7.167-3.034 3.071-5.953 6.25-8.923 9.385-5.182 5.474-10.824 10.566-15.4 16.586-3.811 5.017-6.734 10.789-9.744 16.313-2.695 4.95-4.939 9.88-6.261 15.376-1.467 6.094-3.052 12.164-5.084 18.102-.693 2.02-6.65 11.995-2.974 13.495 3.604 1.47 9.062-11.016 10.61-13.233 3.333-4.767 7.187-9.142 11.017-13.515 4.106-4.685 9.116-8.412 13.362-12.995 4.165-4.496 8.825-8.515 13.328-12.671 9.335-8.62 18.367-17.611 25.226-28.355.792-1.241 4.911-8.365 4.704-4.017-.142 2.914-.255 5.83-.448 8.74-.382 5.786-1.252 11.54-1.463 17.338-.427 11.755-10.446 18.107-19.207 24.146-10.591 7.297-22.397 12.593-32.17 21.092-9.252 8.047-18.325 17.056-25.85 26.752-3.316 4.274-5.285 9.72-7.247 14.725-2.333 5.943-4.734 11.938-6.664 18.025-.304.96.946 2.109 1.83 1.949M96.332 239.643c.188-.115-1.366-1.066 0 0"/>
        <path fill="#DED5C3" d="M35.078 195.369c.139.325.292.646.434.97.49 1.031-.279-1.066-.434-.97M26.129 363.209c-.033-.31-.044-.619-.097-.93-.858.646.123 2.372.097.93M38.607 312.642c-.238.033.388.537 0 0"/>
        <g transform="rotate(154 30.773 85.492)">
            <mask id="b" fill="#fff">
                <use xlink:href="#a"/>
            </mask>
            <path fill="#DED5C3" d="M239.547 53.72l.256-3.491c-4.691 1.507-8.836 4.407-10.3 9.322-.554 1.863-3.274 3.106-4.758 4.084a95.611 95.611 0 0 1-7.725 4.565c1.365-8.45 12.641-17.612 21.221-17.431 1.3-2.34 3.946-2.978 6.344-4.073 1.58-.717 4.519-2.853 6.184-2.212l-11.222 9.236zm.802 9.557c-1.77 1.029-3.946.133-6.048.572 1.45-3.42 4.412-1.946 7.194-1.587-.989 1.332-1.247 1.338-1.146 1.015zm-12.03 10.796c-2.03-.036-11.139 1.981-11.486-.05 2.214-1.332 4.43-2.67 6.65-3.999 1.321-.792 3.096-2.358 4.637-2.595 1.33-.205 2.913 1.267 4.534 1.148 1.353-.1 3.292-1.11 4.53-.56-2.393 2.814-4.759 6.127-8.865 6.056zm-18.347 11.574c-2.23.557-13.91 1.948-13.253-2.335 3.468-.803 6.234-1.572 9.34-3.399 1.01-.593 4.943-3.678 6.25-2.393 3.805 3.74 10.841.797 15.425.794-5.792 3.017-11.376 5.74-17.762 7.333zM197.9 95.85c-7.129 1.326-14.907 2.55-21.361-1.365 3.868-1.925 7.725-3.88 11.614-5.76 4.046-1.957 4.797-.436 8.82.884 7.488 2.456 13.98-.76 21.088-2.726-4.447 5.414-13.591 7.748-20.161 8.967zm7.4 1.922c-7.37 4.772-14.983 8.74-23.744 10.402-4.982.946-9.99 1.791-15.049.985-4.382-.697-7.864-2.513-11.837-4.343 3.765-1.937 7.55-3.85 11.389-5.638 4.884-2.275 8.405-.208 13.363 1.136 9.078 2.456 18.602-.813 27.325-3.48-.66.44-1.117.733-1.446.938zm-12.26 11.915c-7.666 6.676-18.321 8.548-28.041 10.253-5.112.896-10.456 1.519-15.637.872-4.109-.51-10.326-2.15-12.653-6.003-.757-1.252 9.444-6.184 10.866-6.674 4.486-1.54 10.085 2.871 14.271 4.108 10.827 3.192 21.503-.904 31.897-3.894l.178.614c-3.645 3.455-2.072 1.827-.881.724zm-31.146 21.245c-5.825 1.718-11.944 2.486-17.968 3.133-11.201 1.2-21.402 3.052-29.807-5.844 5.32-3.565 10.575-7.118 16.216-10.164 1.992-1.077 5.106 1.999 6.766 2.85 2.74 1.403 5.884 2.266 8.877 2.94 6.077 1.36 12.682-.063 18.76-.902 2.96-.407 14.283-4.224 15.52-.226-6.04 2.883-11.907 6.315-18.364 8.213zm-6.31 9.186c-2.443 1.166-5.141 1.59-7.724 2.34-5.798 1.682-11.374 3.397-17.412 4.085-5.804.658-11.822.765-17.641.201-6.309-.61-10.8-2.802-15.762-6.563l8.016-6.087c1.021-.777 2.046-1.554 3.07-2.331 1.366.593 2.725 1.204 4.082 1.815 4.955 2.23 10.338 5.315 15.89 5.44 3.366.074 6.581-1.026 9.915-1.323 3.09-.27 6.143-.543 9.215-.997 2.17-.323 15.931-3.455 16.466-1.782-2.634 1.69-5.3 3.859-8.114 5.202zm-27.963 14.202c-6.107 1.062-12.225 2.064-18.374 2.856-9.29 1.198-20.538 2.456-25.713-7.003 2.313-1.88 4.61-3.779 6.95-5.62 2.622-2.065 3.12.157 5.596 1.32 4.51 2.114 10.148 3.787 15.082 4.333 6.175.682 11.982.323 18.086-.7 1.666-.282 14.877-2.945 14.925-2.005-5.327 2.767-10.546 5.775-16.552 6.819zm-7.045 5.626c-2.434.855-4.872 1.605-7.383 2.21-4.685 1.13-9.343 1.898-14.129 2.43-4.795.53-9.634 1.014-14.461.628-4.251-.338-7.493-1.735-11.362-3.316 1.707-1.73 3.4-3.473 5.133-5.176 1.707-1.676 2.616-.406 4.528.614 3.607 1.92 7.452 3.524 11.552 3.945 8.728.899 18.383-1.744 27.025-2.898 3.607-.48.882.935-.903 1.563zM85.124 174.87c-3.747.952-7.524 1.963-11.404 2.132-2.167.095-10.189-.089-10.607-2.453 1.763-2.183 5.335-8.862 8.535-8.459 4.216.534 7.995 2.587 12.386 2.815 4.628.243 9.257-.596 13.844-1.103 1.74-.19 11.477-2.139 12.012-.926-8.034 3.328-16.332 5.846-24.766 7.994zm-15.96 14.27c-5.416 2.194-11.063.714-16.454-.532 2.212-3.105 4.358-6.26 6.689-9.277 1.16-1.501 6.3 1.115 7.909 1.222 3.437.225 6.878-.472 10.257-1 1.496-.234 8.672-1.978 8.942-.747-5.581 3.428-11.258 7.869-17.344 10.333zM37.41 215.96c2.898-5.855 5.534-11.917 9.008-17.464 2.167-3.458 2.38-4.35 6.513-4.369 3.097-.015 6.19-.006 9.287-.006-9.022 6.36-17.593 13.454-24.808 21.84zm-1.341-10.485a827.028 827.028 0 0 1 3.212-10.535c2.146-6.819 4.495-13.57 6.769-20.344.018.282.02.551.018.81.1 3.197-.235 6.48.528 9.604.612 2.5 1.164 4.297-.41 6.584-3.167 4.61-6.475 9.326-8.672 14.513-.608 1.436-.997 2.782-1.81 4.108-1.423-.415-.004-3.512.365-4.74zm15.44-43.354c.802-3.812 1.847-8.142 3.875-11.678-1.114 1.258-1.811 1.7 1.665-2.444-.504 4.248-1.095 8.545-1.2 12.825-.059 2.516.304 4.95.776 7.413.118.614 1.074 3.194.84 3.74-1.292 2.998-1.814 6.513-4.367 8.8-1.737 1.554-2.322-1.46-2.583-2.913-.915-5.125-.065-10.707.994-15.743zm10.492-15.442c.912-5.35 1.559-14.842 7.725-16.918a184.782 184.782 0 0 0-2.927 23.233c-.255 4.138.181 11.268-3.447 14.3-.226.278-.632.584-1.348.895a3.573 3.573 0 0 1-.243-.647c-2.672-6.293-.855-14.43.24-20.863zm12.172-16.797c1.132-3.422 2.328-7.062 4.57-9.939 2.14-2.752 5.43-4.9 7.965-7.335-2.969 8.008-4.937 15.993-7.182 24.2-1.042 3.809-3.343 8.436-2.802 12.413.507 3.726-1.74 4.891-4.267 7.231-2.274-8.791-1.119-17.974 1.716-26.57zm14.791-12.199c1.704-3.696 3.397-8.171 5.962-11.345 2.683-3.325 6.552-5.336 9.96-7.804 3.37-2.444-.006 2.616-.59 3.666-1.197 2.148-2.432 4.262-3.519 6.47-2.134 4.333-3.9 8.835-5.403 13.42-1.624 4.96-2.509 10.008-3.542 15.11-.843 4.179-6.047 6.742-9.224 9.25 1.12-9.49 2.304-19.987 6.356-28.767zm26.99-25.58c1.645-1.204 10.901-6.406 12.053-5.024-5.937 8.818-12.403 17.844-16.904 27.499-1.22 2.622-2.29 5.309-3.468 7.952-.733 1.64.36 3.307-.617 4.831-.95 1.48-9.233 7.273-10.124 6.603 2.39-10.206 4.83-19.837 9.77-29.171 2.343-4.423 5.172-9.673 9.29-12.69zm19.057-7.97c2.69-1.903 6.026-2.6 9.197-3.253-5.264 8.302-10.803 16.972-13.69 26.481-.563 1.863-.51 5.007-1.855 6.487-1.472 1.625-4.242 2.622-6.13 3.693-2.081 1.177-4.183 2.328-6.134 3.72-2.494 1.776-2.963 1.678-2.399-1.52.814-4.618 3.83-9.96 6.152-13.993 2.467-4.283 5.243-8.374 7.989-12.479 2.013-3.013 3.853-7 6.87-9.135zm26.666-9.615c.573-.163 1.401-.317 2.592-.436-5.614 6.644-11.154 12.956-14.144 21.273-1.173 3.256-1.196 7.708-4.77 9.295-3.629 1.608-6.897 3.832-10.57 5.35.808-8.877 5.543-16.926 10.706-24 3.99-5.458 9.553-9.987 16.186-11.482zm22.343-6.982c-6.309 5.345-10.616 12.766-14.737 19.825-2.099 3.604-1.76 6.608-5.905 8.441-1.179.522-8.907 5.081-9.108 2.747-.291-3.325 2.42-8.172 4.07-10.93 1.82-3.052 4.35-5.612 6.576-8.364 5.062-6.262 11.661-9.103 19.104-11.72zm10.68-2.554c3.568-1.1 7.184-1.791 10.75-3.055-5.876 5.446-11.968 10.2-14.47 18.167-1.14 3.625-4.436 4.775-7.577 6.276-3.31 1.584-6.555 3.322-9.99 4.613.798-4.025 1.062-4.506 1.03-3.788 1.971-5.941 5.614-11.093 10.465-15.198 2.9-2.456 6.089-5.87 9.791-7.015zm23.111-6.208c-2.006 2.518-3.708 5.277-5.486 7.961-.647.976-1.455 1.966-1.974 3.02-.35.708.493 1.322.166 2.138-.695 1.741-4.572 3.13-6.039 3.939-2.49 1.37-4.898 2.666-7.59 3.58.005-5.736 4.087-9.39 8.092-12.894 1.612-1.408 11.148-10.345 12.831-7.744zm53.864-38.23c-2.972 3.934-7.98 6.378-11.929 9.314-4.563 3.387-9.343 5.953-14.387 8.548-10.126 5.206-19.888 10.518-30.677 14.288-11.139 3.891-22.762 6.196-33.886 10.055-10.599 3.672-21.74 5.79-32.461 9.183-10.863 3.437-21.762 7.163-32.013 12.172-9.957 4.865-19.407 10.933-28.42 17.352-8.984 6.395-15.664 14.103-22.617 22.563-7.844 9.544-14.322 19.908-20.26 30.728-6.133 11.176-8.936 23.396-12.311 35.56-1.82 6.567-3.328 13.083-4.097 19.86-.336 2.988-.484 6.07-1.125 9.009-.585 2.693-.265 4.974-.502 7.64-.475 5.369-6.113 9.984-8.815 14.403-3.087 5.052-5.899 10.376-8.443 15.724-2.8 5.89-5.26 11.968-7.829 17.965-.92 2.15-2.393 4.63-1.745 7.062.403 1.513 1.995 3.39 2.856 4.764 1.157 1.847 4.586 2.085 5.335-.276.665-2.11-.41-4.381.311-6.543 1.995-5.98 4.644-11.74 7.27-17.462 5.11-11.122 8.536-22.903 16.597-32.442 8.036-9.512 17.955-18.485 28.022-25.784 10.498-7.617 21.59-14.14 32.45-21.19 5.516-3.583 10.904-7.353 16.459-10.876 5.011-3.18 10.551-5.176 15.726-8.06 11.154-6.216 22.373-12.525 33.126-19.409 11.05-7.074 21.337-14.8 31.698-22.812 5.255-4.064 10.837-7.934 15.512-12.674 3.759-3.808 8.096-7.133 11.588-11.158 8.378-9.655 17.756-18.497 25.671-28.543 8.218-10.422 15.845-21.23 23.525-32.048 3.717-5.235 7.939-9.838 11.911-14.815 3.741-4.684 7.209-9.524 11.083-14.107-1.784-1.373-.721-1.88.338-3.737.79-1.385 1.583-2.77 2.372-4.159-1.855-3.084-18.427 17.384-20.333 19.906z" mask="url(#b)"/>
        </g>
        <g transform="rotate(154 -9.48 317.478)">
            <mask id="d" fill="#fff">
                <use xlink:href="#c"/>
            </mask>
            <path fill="#DED5C3" d="M186.29 28.515l.846-4.654 1.698 2.376-2.544 2.278m2.129-8.062c-.956-4.85 5.655-2.44 5.447-7.115-.136-3.043-7.368-4.606-4.233-7.994 3.322-3.589-3.05-7.756-5.098-3.138-1.989 4.488-1.389 9.681-4.105 13.947-5.965 9.363-10.213 19.742-16.727 28.839-6.52 9.102-14.197 17.46-22.08 25.386-7.543 7.587-15.33 15.091-23.83 21.617-8.702 6.68-18.71 12.247-28.183 17.766-9.672 5.636-19.449 11.094-29.095 16.777-9.244 5.445-17.807 11.793-26.772 17.594-10.21 6.603-20.111 15.566-27.732 25.025-1.746 2.162-4.053 4.25-5.353 6.733-.713 1.361-.324 4.425 1.888 4.075 1.945-.308 3.69-3.79 5.187-4.989 2.31-1.85 5.228-3.18 7.805-4.62 11.139-6.23 22.967-10.928 34.453-16.46 10.979-5.288 22.997-7.741 33.803-13.602 11.02-5.98 22.148-11.837 32.509-18.909 9.85-6.724 18.421-14.791 26.85-23.253 4.486-4.506 8.87-8.958 12.353-14.3 3.198-4.9 6.14-9.966 9.385-14.836 6.644-9.972 12.718-20.347 18.038-31.081-.225 1.856.27 3.562 2.233 4.093 1.291.35 3.916.667 4.141-1.237.229-1.92.28-4.897-1.837-5.867-1.696-.777-3.325 1.278-4.661 1.96l2.99-7.48c1.605 1.661 3.03 4.473 5.382 2.361 1.903-1.711.849-4.482-.962-5.718 1.74-1.24 3.577-2.044 3.07-4.571-.493-2.47-3.394-2.47-4.866-1.003" mask="url(#d)"/>
        </g>
        <path fill="#DED5C3" d="M53.036 173.536c-1.612 1.796-1.934 3.79.331 5.197 4.908 3.045 6.138-.35 4.857-4.698-1.633-.164-3.946-1.88-5.188-.5M37.484 161.145c-.154-.324-.245-.51.027.069.596 1.24.281.576.034.056 2.19 4.4 9.777 3.201 6.41-1.77-2.037-3.006-8.495-2.81-6.47 1.645M61.185 185.513c.779 1.63.416.804.166.292 2.91 5.472 8.579.34 5.69-3.462-.695-.918-3.271-1.06-4.327-1.044-2.346.039-1.857 2.714-1.529 4.214M45.588 166.091c-1.062 1.175-1.593 2.903-.438 4.148 3.394 3.66 6.942 1.528 5.781-2.843.052.01.035-.152-.182-.733-1.499-1.163-3.413-2.507-5.16-.572M84.003 213.067c-.983 1.318-1.174 3.37-.12 4.692 1.189 1.496 3.83 1.884 5.132.328 1.235-1.477.27-3.55-.19-5.128-1.025-.124-3.996-1.001-4.822.108M24.829 148.014c2.828 3.429 6.13-1.178 4.704-4.285-2.102-4.588-7.695.658-4.704 4.285M23.614 140.763c1.59-.749 3.098-2.553 2.191-4.378-2.15-4.327-6.896-2.078-5.668 2.045-.193-.308-.292-.362.21.733 1.044 1.065 1.44 2.461 3.267 1.6M80.755 205.75c-4.351 2.158.91 8.544 3.583 5.578 2.488-2.761.087-7.399-3.583-5.579M71.055 189.354c1.421-1.502-2.676 1.454 0 0"/>
        <path fill="#DED5C3" d="M68.274 193.838c.573 1.86 2.303 2.9 4.083 1.896 3.52-1.978.579-8.367-1.302-6.38-1.59.864-3.407 2.456-2.781 4.484M74.956 202.328c.481 1.25 2.53 2.194 3.801 1.928 1.68-.348 1.933-3.554 2.394-4.824-.18-.255-.304-.36-.405-.41-2.594-2.827-7.38-.842-5.79 3.306M90.645 229.607c-1.416.335-1.943 2.81-2.515 3.913.226.47.37.648.46.686 2.14 3.075 6.304 1.81 5.779-2.428-.177-1.432-2.448-2.473-3.724-2.17M32.42 150.83c-2.649 1.236-3.19 4.853-.383 6.566 1.267.775 3.1-1.202 3.56-2.218 1.005-2.233-.976-3.428-2.446-4.648-.42.106-.615.208-.732.3M90.787 221.348a5.917 5.917 0 0 0-.246-.464c-1.92.653-3.606.604-3.907 2.995-.18 1.424.493 2.27 1.782 2.827 3.639 1.568 3.548-2.242 2.641-4.71-.024-.13-.115-.35-.27-.648M66.49 319.132c-1.78 1.132 1.701-.833 0 0"/>
        <path fill="#DED5C3" d="M66.49 319.132c4.449-2.176-.45-9.66-4.671-7.397-4.282 2.293.886 9.801 4.671 7.397M64.508 299.533c-1.923-4.458-8.521-.785-6.583 3.405 2.505 5.415 8.783 1.693 6.583-3.405M37.734 234.15c-2.784-3.358-8.231.088-6.373 3.96 2.32 4.838 9.566-.108 6.373-3.96M68.963 326.286c-.517-1.922-2.576-3.528-4.667-2.891-1.967.6-1.93 3.832-2.406 5.407 2.817 3.012 8.452 2.593 7.073-2.516M68.286 352.939c4.915-2.166.334-7.307-3.471-6.772-4.592.65-.838 8.672 3.471 6.772M60.618 286.545c-2.28-4.551-8.356-.04-6.264 3.824 1.988 3.677 8.485.614 6.264-3.824M29.641 209.604c1.595-.834 1.58-3.702 1.228-5.156-1.16-4.788-8.19-1.385-5.814 3.515.638 1.313 3.253 2.34 4.586 1.64M68.252 364.187c1.065-.959.774-3.52.232-4.684-.769-1.658-3.19-3.682-4.74-1.599-1.057 1.416-1.027 3.352-.553 5.035-.029.077.046.374.363 1.104 1.687.487 3.114 1.57 4.698.144M46.108 255.397c-1.933-4.077-8.4-1.6-6.253 2.683 2.137 4.258 8.445 1.947 6.253-2.683M50.174 270.6c3.187-2.23-.005-8.604-3.015-6.582-3.842 1.923-1.273 9.58 3.015 6.582M47.16 264.02c1.843-1.24-2.192 1.095 0 0M33.148 215.392c-3.225-3.347-7.855-2.248-5.664 2.842 2.01 4.676 8.234-.172 5.664-2.842M68.928 335.618c-1.775-3.659-7.502-2.35-5.91 1.882 1.427 3.786 8.34 3.127 5.91-1.882M42.3 245.868c1.186 2.132-.816-1.64 0 0"/>
        <path fill="#DED5C3" d="M37.424 249.335c2.55 1.753 6.622-.333 4.875-3.467-2.673-5.366-9.005.627-4.875 3.467M56.985 278.096c-.004-2.143-3.122-3.124-4.82-2.655-1.923.532-1.569 2.375-1.957 3.93.36.495.56.672.662.701 2.24 2.072 6.124 2.059 6.115-1.976M33.996 224.184c-2.95-2.953-6.668.068-4.883 3.676 2.235 4.513 7.743-.813 4.883-3.676M-7.71 276.568c1.961 4.237 7.778-.15 6.068-3.9-2.115-4.642-7.959-.188-6.068 3.9M4.009 254.176c.27-.169.394-.282-.368.106-.229.175-.238.21-.154.178-2.767 2.461.49 7.661 3.726 5.974 3.964-2.072.921-7.91-3.204-6.258M.11 262.213c-4.605.787-2.691 8.24 1.589 6.185 3.093-1.486 2.012-6.8-1.59-6.185M8.53 249.869c1.61 3.09 8.605-1.187 4.505-4.451-3.236-2.58-6.17 1.253-4.504 4.45M43.605 367.12c-2.068-1.727-3.877 2.848 0 0"/>
        <path fill="#DED5C3" d="M48.312 371.872a3448.82 3448.82 0 0 1-3.406-4.289c1.713-.416 3.63-.929 3.408-3.11-.19-1.908-.604-4.21-2.78-4.76-2.07-.518-4.577.688-4.924 2.916-.304 1.957 1.698 3.406 2.994 4.493-2.677 1.966-4.972 4.224-2.296 7.232 2.07 2.327 5.38-1.185 7.004-2.482M39.34 335.512c2.62 4.438 8.293-.402 4.822-4.127-3.252-3.49-6.282-.14-5.124 3.466-.068-.125-.079-.113.056.243.46.957.398.776.246.418M41.783 408.126c3.65-1.862.439-8.23-3.52-6.457-4.019 1.795.11 8.196 3.52 6.457M42.685 396.885c2.065-.555 2.302-2.648 2.207-4.463-2.607-.827-7.559-3.415-7.04 2.16.21 2.264 3.061 2.78 4.833 2.303M39.659 417.529c1.918-.814 1.439-3.653 1.54-5.26-.355-.483-.514-.6-.57-.56-2.561-2.414-7.18-1.006-4.993 2.983.674 1.233 2.31 3.563 4.023 2.837M44.555 341.07c-1.933-3.997-7.72-1.756-5.756 2.395 1.774 3.751 7.733 1.693 5.756-2.395M31.436 435.967c3.174-1.59.804-7.371-2.305-5.654-4.001 2.09-1.864 7.747 2.305 5.654M29.132 430.313c1.377-.76-1.679.878 0 0M45.692 350.658c-1.995-4.07-7.612.498-5.106 2.9 2.84 2.726 7.183 1.337 5.106-2.9M44.994 379.576c-2.547-2.365-5.728 1.104-4.47 3.837 1.95 4.236 7.77-.777 4.47-3.837M9.931 382.262c-2.78-.04-1.599 7.977 2.498 6.022 4.57-2.183 1.135-5.97-2.498-6.022M-6.616 399.84c-.101-.202-.143-.267.03.15.578 1.177.37.697.143.21 1.985 3.597 6.292 2.146 5.312-2.03-.715-3.03-6.916-2.2-5.485 1.67M1.456 391.121c.248-.127.393-.208-.124.031-.646.342-.395.226-.089.076-3.34 1.92.184 7.095 2.557 5.073 2.176-1.857.787-6.486-2.344-5.18"/>
    </g>
</svg>
