<?xml version="1.0" encoding="UTF-8"?>
<svg width="24px" height="24px" viewBox="0 0 24 24" version="1.1" xmlns="http://www.w3.org/2000/svg" xmlns:xlink="http://www.w3.org/1999/xlink">
    <!-- Generator: sketchtool 45 (43475) - http://www.bohemiancoding.com/sketch -->
    <title>108960A0-AE9F-45AF-AAC3-F1F7790B4819</title>
    <desc>Created with sketchtool.</desc>
    <defs></defs>
    <g id="Symbols" stroke="none" stroke-width="1" fill="none" fill-rule="evenodd">
        <g id="0-Atom/Icon/Linkedin" fill="#8A8173">
            <path d="M7.86263021,9.19891008 L4.21028646,9.19891008 L4.21028646,20 L7.86263021,20 L7.86263021,9.19891008 Z M8.09505208,5.86376022 C8.08398438,4.80653951 7.30924479,4 6.05859375,4 C4.81901042,4 4,4.80653951 4,5.86376022 C4,6.89918256 4.78580729,7.72752044 6.01432292,7.72752044 L6.03645833,7.72752044 C7.30924479,7.72752044 8.10611979,6.89918256 8.09505208,5.86376022 Z M13.5182292,10.7341163 L13.5182292,9.19891008 L9.87695312,9.19891008 C9.87695312,9.19891008 9.92122396,10.2125341 9.87695312,20 L13.5182292,20 L13.5182292,13.972752 C13.5182292,13.6457766 13.5514323,13.3297003 13.639974,13.0899183 C13.905599,12.4468665 14.5032552,11.7820163 15.5104167,11.7820163 C16.827474,11.7820163 17.358724,12.773842 17.358724,14.2234332 L17.358724,20 L21,20 L21,13.8092643 C21,10.4959128 19.2070312,8.94822888 16.8053385,8.94822888 C14.8654504,8.94822888 13.9987005,9.99445866 13.5182292,10.7341163 L13.5182292,10.7341163 Z"></path>
        </g>
    </g>
</svg>