<svg xmlns="http://www.w3.org/2000/svg" width="9" height="14" viewBox="0 0 9 14">
    <path fill="#AEA493" fill-rule="evenodd" d="M4.184.5c1.148 0 2.138.41 2.97 1.23.832.82 1.248 1.817 1.248 2.989 0 1.195-.351 2.566-1.054 4.113-.703 1.547-1.407 2.8-2.11 3.762L4.184 14c-.118-.14-.27-.34-.457-.598a42.003 42.003 0 0 1-1.002-1.494 23.645 23.645 0 0 1-1.266-2.18A17.271 17.271 0 0 1 .457 7.25C.152 6.312 0 5.469 0 4.719 0 3.547.41 2.55 1.23 1.73 2.05.91 3.035.5 4.184.5zm0 6.258c.539 0 1.007-.194 1.406-.58.398-.387.598-.85.598-1.389s-.2-1.008-.598-1.406c-.399-.399-.867-.598-1.406-.598-.54 0-1.002.2-1.39.598-.386.398-.58.867-.58 1.406 0 .54.194 1.002.58 1.389.388.386.85.58 1.39.58z"/>
</svg>
