<?xml version="1.0" encoding="UTF-8"?>
<!DOCTYPE svg PUBLIC "-//W3C//DTD SVG 1.1//EN" "http://www.w3.org/Graphics/SVG/1.1/DTD/svg11.dtd">
<svg xmlns="http://www.w3.org/2000/svg" version="1.1" width="256px" height="256px" style="shape-rendering:geometricPrecision; text-rendering:geometricPrecision; image-rendering:optimizeQuality; fill-rule:evenodd; clip-rule:evenodd" xmlns:xlink="http://www.w3.org/1999/xlink">
<g><path style="opacity:1" fill="#aba090" d="M 123.5,-0.5 C 126.167,-0.5 128.833,-0.5 131.5,-0.5C 146.187,11.0373 154.187,26.2039 155.5,45C 155.487,51.3978 154.32,57.5645 152,63.5C 150.301,47.6002 143.468,34.4335 131.5,24C 128.833,22 126.167,22 123.5,24C 111.526,34.4467 104.693,47.6134 103,63.5C 95.4835,37.5501 102.317,16.2168 123.5,-0.5 Z"/></g>
<g><path style="opacity:0.998" fill="#aaa090" d="M 63.5,15.5 C 72.6342,15.5749 81.1342,17.9082 89,22.5C 87.8654,28.0616 86.8654,33.7283 86,39.5C 85.8762,45.2267 85.7095,50.8934 85.5,56.5C 77.0459,49.4404 67.3793,44.7737 56.5,42.5C 55.6158,33.8102 57.1158,25.4769 61,17.5C 61.9947,16.9341 62.828,16.2674 63.5,15.5 Z"/></g>
<g><path style="opacity:1" fill="#aba091" d="M 182.5,15.5 C 186.584,15.0431 190.417,15.7098 194,17.5C 197.598,25.5373 199.098,33.8706 198.5,42.5C 187.549,44.893 177.715,49.5597 169,56.5C 169.779,45.3385 168.612,34.3385 165.5,23.5C 165.818,22.3527 166.484,21.5194 167.5,21C 172.571,19.0353 177.571,17.202 182.5,15.5 Z"/></g>
<g><path style="opacity:1" fill="#aba090" d="M 126.5,39.5 C 128.017,39.5106 129.184,40.1772 130,41.5C 141.115,60.7641 140.282,79.7641 127.5,98.5C 113.719,78.9195 113.386,59.2528 126.5,39.5 Z"/></g>
<g><path style="opacity:0.998" fill="#aa9f91" d="M 35.5,55.5 C 54.8171,53.0453 70.8171,59.0453 83.5,73.5C 83.3333,73.8333 83.1667,74.1667 83,74.5C 70.292,68.3521 57.1254,67.1854 43.5,71C 39.0373,71.6305 36.3706,74.1305 35.5,78.5C 38.8434,94.0294 46.8434,106.529 59.5,116C 39.39,113.004 25.89,101.837 19,82.5C 15.6114,75.6803 14.9447,68.6803 17,61.5C 22.9969,58.6331 29.1636,56.6331 35.5,55.5 Z"/></g>
<g><path style="opacity:1" fill="#aa9d8e" d="M 201.5,55.5 C 213.971,54.4122 225.971,56.2455 237.5,61C 238.93,62.9074 239.596,65.0741 239.5,67.5C 236.207,93.1189 222.207,109.452 197.5,116.5C 196.833,116.333 196.167,116.167 195.5,116C 208.157,106.529 216.157,94.0294 219.5,78.5C 218.629,74.1305 215.963,71.6305 211.5,71C 206.412,69.6799 201.246,68.8465 196,68.5C 187.134,69.1786 178.634,71.0119 170.5,74C 178.735,64.2198 189.068,58.0531 201.5,55.5 Z"/></g>
<g><path style="opacity:0.999" fill="#aba190" d="M 51.5,82.5 C 75.0143,81.4239 92.0143,91.4239 102.5,112.5C 78.3489,115.261 61.0156,105.761 50.5,84C 51.056,83.6174 51.3893,83.1174 51.5,82.5 Z"/></g>
<g><path style="opacity:1" fill="#a89e8f" d="M 188.5,82.5 C 194.021,82.0543 199.355,82.5543 204.5,84C 193.985,105.761 176.651,115.261 152.5,112.5C 160.053,96.9296 172.053,86.9296 188.5,82.5 Z"/></g>
<g><path style="opacity:1" fill="#aaa18e" d="M -0.5,131.5 C -0.5,128.833 -0.5,126.167 -0.5,123.5C 4.71411,117.131 10.8808,111.798 18,107.5C 25.6086,116.27 34.7753,122.937 45.5,127.5C 34.7961,132.197 25.4628,138.864 17.5,147.5C 10.5366,143.201 4.53656,137.867 -0.5,131.5 Z"/></g>
<g><path style="opacity:1" fill="#aa9f90" d="M 255.5,123.5 C 255.5,126.167 255.5,128.833 255.5,131.5C 250.286,137.869 244.119,143.202 237,147.5C 229.391,138.73 220.225,132.063 209.5,127.5C 220.204,122.803 229.537,116.136 237.5,107.5C 244.463,111.799 250.463,117.133 255.5,123.5 Z"/></g>
<g><path style="opacity:1" fill="#a69b91" d="M 126.5,116.5 C 137.518,118.631 140.518,124.631 135.5,134.5C 130.722,139.075 125.722,139.409 120.5,135.5C 115.925,130.722 115.591,125.722 119.5,120.5C 121.525,118.436 123.858,117.102 126.5,116.5 Z"/></g>
<g><path style="opacity:0.999" fill="#aa9e8d" d="M 55.5,138.5 C 56.8734,138.343 58.2068,138.51 59.5,139C 46.8434,148.471 38.8434,160.971 35.5,176.5C 36.3706,180.87 39.0373,183.37 43.5,184C 48.7648,185.252 54.0982,186.085 59.5,186.5C 68.1875,185.741 76.5209,183.908 84.5,181C 71.502,195.89 55.1687,201.89 35.5,199C 29.2354,198.267 23.2354,196.601 17.5,194C 16.0702,192.093 15.4035,189.926 15.5,187.5C 18.7138,162.643 32.0471,146.31 55.5,138.5 Z"/></g>
<g><path style="opacity:1" fill="#aa9f8f" d="M 195.5,139.5 C 206.939,140.13 216.773,144.796 225,153.5C 232.93,163.277 237.763,174.444 239.5,187C 239.624,189.59 238.958,191.923 237.5,194C 219.639,201.643 201.972,201.31 184.5,193C 179.748,190.252 175.581,186.752 172,182.5C 171.333,181.833 171.333,181.167 172,180.5C 184.726,186.486 197.893,187.653 211.5,184C 215.963,183.37 218.629,180.87 219.5,176.5C 216.265,160.959 208.265,148.625 195.5,139.5 Z"/></g>
<g><path style="opacity:1" fill="#aca291" d="M 94.5,141.5 C 97.2469,141.187 99.9135,141.52 102.5,142.5C 95.8273,156.007 85.494,165.507 71.5,171C 64.3904,172.837 57.3904,172.837 50.5,171C 59.1812,152.139 73.8479,142.306 94.5,141.5 Z"/></g>
<g><path style="opacity:0.998" fill="#a9a090" d="M 152.5,141.5 C 176.636,139.726 193.97,149.559 204.5,171C 180.117,173.967 162.784,164.133 152.5,141.5 Z"/></g>
<g><path style="opacity:1" fill="#aaa190" d="M 126.5,156.5 C 130.55,160.237 133.383,164.904 135,170.5C 139.453,181.859 139.453,193.192 135,204.5C 133.444,208.876 130.944,212.542 127.5,215.5C 124.056,212.542 121.556,208.876 120,204.5C 116.466,194.462 116.133,184.462 119,174.5C 121.237,168.364 123.737,162.364 126.5,156.5 Z"/></g>
<g><path style="opacity:1" fill="#a99e8f" d="M 131.5,255.5 C 128.833,255.5 126.167,255.5 123.5,255.5C 108.813,243.963 100.813,228.796 99.5,210C 99.513,203.602 100.68,197.436 103,191.5C 104.699,207.4 111.532,220.566 123.5,231C 126.167,233 128.833,233 131.5,231C 143.473,220.556 150.306,207.389 152,191.5C 159.529,217.414 152.696,238.747 131.5,255.5 Z"/></g>
<g><path style="opacity:1" fill="#aaa090" d="M 85.5,198.5 C 85.2044,209.489 86.5378,220.489 89.5,231.5C 84.6259,235.417 78.9592,237.917 72.5,239C 68.7054,239.837 65.0387,239.504 61.5,238C 57.513,229.897 55.8464,221.397 56.5,212.5C 67.4256,210.202 77.0923,205.536 85.5,198.5 Z"/></g>
<g><path style="opacity:1" fill="#aa9e8e" d="M 168.5,198.5 C 177.402,205.281 187.402,209.948 198.5,212.5C 199.469,221.466 197.803,229.966 193.5,238C 183.722,239.769 174.555,237.935 166,232.5C 167.715,225.169 168.882,217.669 169.5,210C 169.11,206.165 168.777,202.332 168.5,198.5 Z"/></g>
</svg>
