<?xml version="1.0" encoding="UTF-8"?>
<svg width="24px" height="24px" viewBox="0 0 24 24" version="1.1" xmlns="http://www.w3.org/2000/svg" xmlns:xlink="http://www.w3.org/1999/xlink">
    <!-- Generator: sketchtool 45 (43475) - http://www.bohemiancoding.com/sketch -->
    <title>7860534C-E40A-4FA2-926F-4D4BD4D77934</title>
    <desc>Created with sketchtool.</desc>
    <defs></defs>
    <g id="Symbols" stroke="none" stroke-width="1" fill="none" fill-rule="evenodd">
        <g id="0-Atom/Icon/Twitter" fill="#8A8173">
            <path d="M22,6.796875 C21.5423706,7.52604531 20.9322072,8.17708047 20.1694915,8.75 L20.1694915,9.21875 C20.1694915,11.9531387 19.2097554,14.4335826 17.2902542,16.6601562 C15.3707531,18.8867299 12.8220498,20 9.6440678,20 C7.61015932,20 5.7288222,19.4270891 4,18.28125 C4.40678169,18.3333336 4.69915165,18.359375 4.87711864,18.359375 C6.58051699,18.359375 8.10592547,17.8125055 9.45338983,16.71875 C8.6652503,16.6927082 7.95339301,16.4388045 7.31779661,15.9570312 C6.68220021,15.475258 6.25000114,14.8567746 6.02118644,14.1015625 C6.32627271,14.1536461 6.55508398,14.1796875 6.70762712,14.1796875 C6.96186568,14.1796875 7.29237085,14.1276047 7.69915254,14.0234375 C6.8601653,13.8411449 6.15466388,13.4049514 5.58262712,12.7148438 C5.01059036,12.0247361 4.72457627,11.2239629 4.72457627,10.3125 L4.72457627,10.2734375 C5.2839011,10.5859391 5.84321754,10.7421875 6.40254237,10.7421875 C5.30931657,10.0130172 4.76271186,8.95834023 4.76271186,7.578125 C4.76271186,6.92708008 4.92796445,6.30208633 5.25847458,5.703125 C7.21611148,8.1770957 9.7457472,9.49218672 12.8474576,9.6484375 C12.7966099,9.46614492 12.7711864,9.17968945 12.7711864,8.7890625 C12.7711864,7.72134883 13.1271151,6.82292031 13.8389831,6.09375 C14.550851,5.36457969 15.4279609,5 16.470339,5 C17.5127171,5 18.4025387,5.4036418 19.1398305,6.2109375 C19.9025462,6.08072852 20.6906739,5.76823164 21.5042373,5.2734375 C21.2499987,6.18490039 20.703394,6.88801836 19.8644068,7.3828125 C20.6525463,7.30468711 21.3644036,7.10937656 22,6.796875 Z"></path>
        </g>
    </g>
</svg>