<?xml version="1.0" encoding="UTF-8"?>
<svg width="24px" height="24px" viewBox="0 0 24 24" version="1.1" xmlns="http://www.w3.org/2000/svg" xmlns:xlink="http://www.w3.org/1999/xlink">
    <!-- Generator: sketchtool 45 (43475) - http://www.bohemiancoding.com/sketch -->
    <title>8E8425FA-9F9C-4E87-892B-4B73BE5C1D7B</title>
    <desc>Created with sketchtool.</desc>
    <defs></defs>
    <g id="Symbols" stroke="none" stroke-width="1" fill="none" fill-rule="evenodd">
        <g id="0-Atom/Icon/Youtube" fill="#E4DED4">
            <path d="M21.8828125,8.3203125 C21.9609379,9.72656953 22,11.1197848 22,12.5 C22,13.8802152 21.9609379,15.2734305 21.8828125,16.6796875 C21.8828125,17.5651086 21.6028674,18.313799 21.0429688,18.9257812 C20.4830701,19.5377635 19.7994832,19.84375 18.9921875,19.84375 C16.9869691,19.9479172 14.6562633,20 12,20 C9.34373672,20 7.01303086,19.9479172 5.0078125,19.84375 C4.2005168,19.84375 3.51692988,19.5377635 2.95703125,18.9257812 C2.39713262,18.313799 2.1171875,17.5651086 2.1171875,16.6796875 C2.03906211,15.2734305 2,13.8802152 2,12.5 C2,11.5885371 2.05208281,10.1953219 2.15625,8.3203125 C2.15625,7.43489141 2.42968477,6.68620098 2.9765625,6.07421875 C3.52344023,5.46223652 4.2005168,5.15625 5.0078125,5.15625 C6.90886367,5.05208281 9.1223832,5 11.6484375,5 L12.3515625,5 C14.8776168,5 17.0911363,5.05208281 18.9921875,5.15625 C19.7994832,5.15625 20.4830701,5.46223652 21.0429688,6.07421875 C21.6028674,6.68620098 21.8828125,7.43489141 21.8828125,8.3203125 Z M10.0859375,16.328125 L15.75,12.5 L10.0859375,8.6328125 L10.0859375,16.328125 Z"></path>
        </g>
    </g>
</svg>